<svg width="1440" height="1180" viewBox="0 0 1440 1180" fill="none" xmlns="http://www.w3.org/2000/svg">
  <rect width="1440" height="1180" fill="#F6F7F4"/>
  <g font-family="Inter, -apple-system, BlinkMacSystemFont, 'Segoe UI', sans-serif">
    <rect x="16" y="18" width="1408" height="64" rx="8" fill="white" fill-opacity="0.86" stroke="#E4E7E0"/>
    <rect x="32" y="31" width="38" height="38" rx="8" fill="#23864D"/>
    <path d="M43 43.5C43 41.567 44.567 40 46.5 40H55.5C57.433 40 59 41.567 59 43.5V56.5C59 58.433 57.433 60 55.5 60H46.5C44.567 60 43 58.433 43 56.5V43.5Z" stroke="white" stroke-width="2"/>
    <path d="M43.5 46H58.5M47 40V60M55 40V60" stroke="white" stroke-width="2"/>
    <text x="82" y="48" fill="#20231F" font-size="24" font-weight="760">Dify 工作流控制台</text>
    <text x="82" y="68" fill="#6C746A" font-size="13">本地调用 Dify 工作流，并生成飞书多维表格</text>
    <rect x="1072" y="34" width="220" height="32" rx="6" fill="#FBFCFA" stroke="#E4E7E0"/>
    <circle cx="1088" cy="50" r="4" fill="#26A65B"/>
    <text x="1102" y="55" fill="#20231F" font-size="13" font-weight="680">Dify</text>
    <text x="1140" y="55" fill="#596156" font-size="13">http://127.0.0.1:5001</text>
    <rect x="1302" y="34" width="106" height="32" rx="6" fill="#FBFCFA" stroke="#E4E7E0"/>
    <circle cx="1318" cy="50" r="4" fill="#26A65B"/>
    <text x="1332" y="55" fill="#20231F" font-size="13" font-weight="680">lark-cli</text>
    <text x="1378" y="55" fill="#596156" font-size="13">--as bot</text>

    <g transform="translate(16 94)">
      <rect width="528" height="318" rx="8" fill="white" fill-opacity="0.92" stroke="#E2E6DF"/>
      <text x="14" y="29" fill="#20231F" font-size="17" font-weight="740">1. 工作流输入配置</text>
      <text x="14" y="51" fill="#6C746A" font-size="13">字段来自 config/workflow-fields.json，提交时会映射为 Dify inputs。</text>
      <rect x="418" y="14" width="96" height="36" rx="6" fill="#FBFCFA" stroke="#DFE4DC"/>
      <path d="M434 25C438 20 446 20 450 25M450 25H444M450 25V19M450 39C446 44 438 44 434 39M434 39H440M434 39V45" stroke="#293029" stroke-width="1.6" stroke-linecap="round"/>
      <text x="458" y="37" fill="#293029" font-size="13" font-weight="640">重载配置</text>
      <text x="16" y="83" fill="#687066" font-size="12" font-weight="700">字段名</text>
      <text x="188" y="83" fill="#687066" font-size="12" font-weight="700">类型</text>
      <text x="282" y="83" fill="#687066" font-size="12" font-weight="700">必填</text>
      <text x="344" y="83" fill="#687066" font-size="12" font-weight="700">值</text>
      <g transform="translate(14 96)">
        <rect width="166" height="38" rx="6" fill="#F7F8F5" stroke="#DFE4DC"/><text x="11" y="25" fill="#5C645A" font-size="13">book_id</text>
        <rect x="174" width="86" height="32" rx="6" fill="#F7F9F5" stroke="#E3E7DF"/><text x="201" y="21" fill="#536052" font-size="12" font-weight="700">string</text>
        <rect x="268" width="54" height="32" rx="6" fill="#EAF7EE" stroke="#CDE9D5"/><text x="288" y="21" fill="#14733E" font-size="12" font-weight="700">是</text>
        <rect x="330" width="184" height="38" rx="6" fill="white" stroke="#DFE4DC"/><text x="341" y="25" fill="#20231F" font-size="13">book_001</text>
      </g>
      <g transform="translate(14 144)">
        <rect width="166" height="38" rx="6" fill="#F7F8F5" stroke="#DFE4DC"/><text x="11" y="25" fill="#5C645A" font-size="13">start_chapter_index</text>
        <rect x="174" width="86" height="32" rx="6" fill="#F7F9F5" stroke="#E3E7DF"/><text x="194" y="21" fill="#536052" font-size="12" font-weight="700">integer</text>
        <rect x="268" width="54" height="32" rx="6" fill="#EAF7EE" stroke="#CDE9D5"/><text x="288" y="21" fill="#14733E" font-size="12" font-weight="700">是</text>
        <rect x="330" width="184" height="38" rx="6" fill="white" stroke="#DFE4DC"/><text x="341" y="25" fill="#20231F" font-size="13">1</text>
      </g>
      <g transform="translate(14 192)">
        <rect width="166" height="38" rx="6" fill="#F7F8F5" stroke="#DFE4DC"/><text x="11" y="25" fill="#5C645A" font-size="13">end_chapter_index</text>
        <rect x="174" width="86" height="32" rx="6" fill="#F7F9F5" stroke="#E3E7DF"/><text x="194" y="21" fill="#536052" font-size="12" font-weight="700">integer</text>
        <rect x="268" width="54" height="32" rx="6" fill="#EAF7EE" stroke="#CDE9D5"/><text x="288" y="21" fill="#14733E" font-size="12" font-weight="700">是</text>
        <rect x="330" width="184" height="38" rx="6" fill="white" stroke="#DFE4DC"/><text x="341" y="25" fill="#20231F" font-size="13">50</text>
      </g>
    </g>

    <g transform="translate(16 424)">
      <rect width="528" height="142" rx="8" fill="white" fill-opacity="0.92" stroke="#E2E6DF"/>
      <text x="14" y="29" fill="#20231F" font-size="17" font-weight="740">2. 运行工作流</text>
      <text x="14" y="51" fill="#6C746A" font-size="13">使用 blocking 模式等待 Dify 完成，再解析 outputs.result。</text>
      <rect x="418" y="14" width="96" height="36" rx="6" fill="#FBFCFA" stroke="#DFE4DC"/>
      <path d="M437 25H451M440 25V22C440 20.9 440.9 20 442 20H446C447.1 20 448 20.9 448 22V25M441 29V39M447 29V39M435 25L436 43C436.1 44.1 437 45 438.1 45H449.9C451 45 451.9 44.1 452 43L453 25" stroke="#293029" stroke-width="1.6" stroke-linecap="round"/>
      <text x="458" y="37" fill="#293029" font-size="13" font-weight="640">清空结果</text>
      <rect x="14" y="78" width="500" height="44" rx="7" fill="#23864D"/>
      <path d="M217 92L229 100L217 108V92Z" fill="white"/>
      <text x="238" y="106" fill="white" font-size="14" font-weight="760">运行工作流</text>
    </g>

    <g transform="translate(556 94)">
      <rect width="868" height="404" rx="8" fill="white" fill-opacity="0.92" stroke="#E2E6DF"/>
      <text x="14" y="29" fill="#20231F" font-size="17" font-weight="740">3. 输出预览</text>
      <text x="14" y="51" fill="#6C746A" font-size="13">解析后的 JSON 数据，最多展示前 100 条。</text>
      <rect x="758" y="14" width="96" height="36" rx="6" fill="#FBFCFA" stroke="#DFE4DC"/>
      <path d="M776 24H788V36H776V24Z" stroke="#293029" stroke-width="1.6"/><path d="M780 20H792V32" stroke="#293029" stroke-width="1.6"/>
      <text x="798" y="37" fill="#293029" font-size="13" font-weight="640">复制 JSON</text>
      <rect x="14" y="78" width="840" height="300" rx="7" fill="#FBFCFA" stroke="#D9DFD5" stroke-dasharray="5 5"/>
      <text x="302" y="232" text-anchor="middle" fill="#7A8378" font-size="13">运行工作流后，这里会显示解析后的 JSON 表格预览。</text>
      <g transform="translate(500 176)" opacity="0.62">
        <rect width="240" height="70" rx="6" fill="white" stroke="#E3E7DF"/>
        <rect x="1" y="1" width="238" height="26" rx="5" fill="#F8FAF7"/>
        <line x1="80" y1="1" x2="80" y2="69" stroke="#EDF0EA"/>
        <line x1="160" y1="1" x2="160" y2="69" stroke="#EDF0EA"/>
        <line x1="1" y1="27" x2="239" y2="27" stroke="#EDF0EA"/>
        <line x1="1" y1="49" x2="239" y2="49" stroke="#EDF0EA"/>
      </g>
    </g>

    <g transform="translate(556 510)">
      <rect width="868" height="316" rx="8" fill="white" fill-opacity="0.92" stroke="#E2E6DF"/>
      <text x="14" y="29" fill="#20231F" font-size="17" font-weight="740">4. 创建飞书多维表格</text>
      <text x="14" y="51" fill="#6C746A" font-size="13">确认预览无误后，再创建新的 Base 并写入记录。</text>
      <g transform="translate(14 78)">
        <text x="0" y="12" fill="#5C655B" font-size="12" font-weight="700">机器人身份</text>
        <rect y="20" width="360" height="38" rx="6" fill="#F7F8F5" stroke="#DFE4DC"/><text x="11" y="45" fill="#5C645A" font-size="13">lark-cli --as bot</text>
        <text x="0" y="82" fill="#5C655B" font-size="12" font-weight="700">多维表格名称</text>
        <rect y="90" width="360" height="38" rx="6" fill="white" stroke="#DFE4DC"/><text x="11" y="115" fill="#20231F" font-size="13">Dify 工作流结果 2026-05-13 12:30:00</text>
        <text x="0" y="152" fill="#5C655B" font-size="12" font-weight="700">数据表名称</text>
        <rect y="160" width="360" height="38" rx="6" fill="white" stroke="#DFE4DC"/><text x="11" y="185" fill="#20231F" font-size="13">结果表</text>
        <rect y="212" width="360" height="44" rx="7" fill="#23864D" opacity="0.55"/>
        <path d="M99 226V242M91 234H107" stroke="white" stroke-width="2" stroke-linecap="round"/>
        <text x="119" y="240" fill="white" font-size="14" font-weight="760">创建飞书多维表格</text>
      </g>
      <g transform="translate(392 78)">
        <rect width="462" height="236" rx="7" fill="#FBFCFA" stroke="#E3E7DF"/>
        <rect x="76" y="72" width="310" height="92" rx="7" fill="#FBFCFA" stroke="#D9DFD5" stroke-dasharray="5 5"/>
        <text x="231" y="124" text-anchor="middle" fill="#7A8378" font-size="13">尚未创建。运行工作流并确认预览后，可在这里生成飞书 Base。</text>
      </g>
    </g>

    <g transform="translate(16 838)">
      <rect width="1408" height="300" rx="8" fill="white" fill-opacity="0.92" stroke="#E2E6DF"/>
      <text x="14" y="29" fill="#20231F" font-size="17" font-weight="740">5. 活动日志</text>
      <text x="14" y="51" fill="#6C746A" font-size="13">最近 20 条本地操作记录。</text>
      <rect x="14" y="78" width="1380" height="170" rx="7" fill="white" stroke="#E3E7DF"/>
      <g transform="translate(15 79)">
        <rect width="1378" height="34" fill="white"/>
        <text x="11" y="22" fill="#647062" font-size="13">2026/5/13 12:30:08</text>
        <rect x="182" y="8" width="40" height="18" rx="4" fill="#E6F5EB"/><text x="190" y="21" fill="#14733E" font-size="11" font-weight="700">INFO</text>
        <text x="252" y="22" fill="#647062" font-size="13">System</text>
        <text x="364" y="22" fill="#20231F" font-size="13">配置加载完成</text>
        <line x1="0" y1="34" x2="1378" y2="34" stroke="#EDF0EA"/>
        <rect y="34" width="1378" height="34" fill="white"/>
        <text x="11" y="56" fill="#647062" font-size="13">2026/5/13 12:30:21</text>
        <rect x="182" y="42" width="40" height="18" rx="4" fill="#E6F5EB"/><text x="190" y="55" fill="#14733E" font-size="11" font-weight="700">INFO</text>
        <text x="252" y="56" fill="#647062" font-size="13">Dify</text>
        <text x="364" y="56" fill="#20231F" font-size="13">开始运行工作流</text>
        <line x1="0" y1="68" x2="1378" y2="68" stroke="#EDF0EA"/>
        <rect y="68" width="1378" height="34" fill="white"/>
        <text x="11" y="90" fill="#647062" font-size="13">2026/5/13 12:30:34</text>
        <rect x="182" y="76" width="40" height="18" rx="4" fill="#E6F5EB"/><text x="190" y="89" fill="#14733E" font-size="11" font-weight="700">INFO</text>
        <text x="252" y="90" fill="#647062" font-size="13">Parser</text>
        <text x="364" y="90" fill="#20231F" font-size="13">JSON 解析成功，得到 100 条记录、12 个字段</text>
        <line x1="0" y1="102" x2="1378" y2="102" stroke="#EDF0EA"/>
        <rect y="102" width="1378" height="34" fill="white"/>
        <text x="11" y="124" fill="#647062" font-size="13">2026/5/13 12:31:02</text>
        <rect x="182" y="110" width="40" height="18" rx="4" fill="#E6F5EB"/><text x="190" y="123" fill="#14733E" font-size="11" font-weight="700">INFO</text>
        <text x="252" y="124" fill="#647062" font-size="13">lark-cli</text>
        <text x="364" y="124" fill="#20231F" font-size="13">创建成功，写入 100 条记录</text>
        <line x1="0" y1="136" x2="1378" y2="136" stroke="#EDF0EA"/>
        <rect y="136" width="1378" height="34" fill="white"/>
        <text x="11" y="158" fill="#647062" font-size="13">2026/5/13 12:31:12</text>
        <rect x="182" y="144" width="40" height="18" rx="4" fill="#E6F5EB"/><text x="190" y="157" fill="#14733E" font-size="11" font-weight="700">INFO</text>
        <text x="252" y="158" fill="#647062" font-size="13">System</text>
        <text x="364" y="158" fill="#20231F" font-size="13">结果已清空</text>
      </g>
    </g>
  </g>
</svg>
